<?xml version="1.0" encoding="utf-8"?>
<!-- Generator: Adobe Illustrator 24.0.2, SVG Export Plug-In . SVG Version: 6.00 Build 0)  -->
<svg version="1.1" id="Layer_1" xmlns="http://www.w3.org/2000/svg" xmlns:xlink="http://www.w3.org/1999/xlink" x="0px" y="0px"
	 viewBox="0 0 55 55" style="enable-background:new 0 0 55 55;" xml:space="preserve">
<style type="text/css">
	.st0{fill:#2E4C5D;}
	.st1{fill:#6A899A;}
	.st2{fill:#7CA2B7;}
	.st3{fill:#3D5D6F;}
	.st4{fill:#254150;}
	.st5{fill:#1B313C;}
	.st6{fill:#3681AE;}
	.st7{fill:#368AB3;}
	.st8{fill:#1E6486;}
	.st9{fill:#6E7585;}
	.st10{fill:#D75718;}
	.st11{fill:#A23702;}
	.st12{fill:#203947;}
	.st13{fill:#243F4E;}
	.st14{fill:#253741;}
	.st15{fill:#1B323F;}
	.st16{fill:#FFFFFF;}
	.st17{fill:#317497;}
	.st18{fill:#9C9DA6;}
	.st19{fill:#EBEBF4;}
	.st20{fill:#525F69;}
	.st21{fill:#767276;}
	.st22{fill:#8C898E;}
	.st23{fill:#8E9BA9;}
	.st24{fill:#2E7295;}
	.st25{fill:#A7A7B0;}
	.st26{fill:#2C6D8F;}
	.st27{fill:#8A878E;}
	.st28{fill:#25546D;}
	.st29{fill:#DFE0EB;}
	.st30{fill:#3E95C3;}
	.st31{fill:#274555;}
	.st32{fill:#3D5B6C;}
	.st33{fill:#EF5813;}
	.st34{fill:#FF6B2E;}
	.st35{fill:#688EA3;}
	.st36{fill:#51ACDC;}
	.st37{fill:#75E0FE;}
	.st38{fill:#FBFFFF;}
	.st39{fill:#69E0FF;}
	.st40{fill:#162D3A;}
	.st41{fill:#3E7D9E;}
	.st42{fill:#739AB0;}
	.st43{fill:#60D0FF;}
	.st44{fill:#223C4A;}
	.st45{fill:#101F27;}
	.st46{fill:#284758;}
	.st47{fill:#65696F;}
	.st48{fill:#E3E3F0;}
	.st49{fill:#164157;}
	.st50{fill:#C34A16;}
	.st51{fill:#3E3E42;}
	.st52{fill:#4280A0;}
	.st53{fill:#3C93C2;}
	.st54{fill:#79797F;}
	.st55{fill:#EA6022;}
	.st56{fill:#254353;}
	.st57{fill:#1C343F;}
	.st58{fill:#3F92BC;}
	.st59{fill:#D45A25;}
	.st60{fill:#737379;}
	.st61{fill:#3E94C1;}
	.st62{fill:#3E91BD;}
	.st63{fill:#FF954C;}
	.st64{fill:#BABFCB;}
	.st65{fill:#52BDF2;}
	.st66{fill:#367FA8;}
	.st67{fill:#48A9DB;}
	.st68{fill:#14242E;}
	.st69{fill:#345568;}
	.st70{fill:#264354;}
	.st71{fill:#34779C;}
	.st72{fill:#1B313A;}
	.st73{fill:#233D4B;}
	.st74{fill:#3887B0;}
	.st75{fill:#172A33;}
	.st76{fill:#D5D5E0;}
	.st77{fill:#35799B;}
	.st78{fill:#22556F;}
	.st79{fill:#3687B0;}
	.st80{fill:#56AFDE;}
	.st81{fill:#B5B4BF;}
	.st82{fill:#3E8DB7;}
	.st83{fill:#1F323D;}
	.st84{fill:#192B36;}
	.st85{fill:#2A4351;}
	.st86{fill:#2C6786;}
	.st87{fill:#3C8EB8;}
	.st88{fill:#92CDEE;}
	.st89{fill:#D0AFA2;}
	.st90{fill:#67A8CA;}
	.st91{fill:#8A9CAB;}
	.st92{fill:#545458;}
	.st93{fill:#404043;}
	.st94{fill:#4A4B4F;}
	.st95{fill:#616166;}
	.st96{fill:#5F6065;}
	.st97{fill:#172933;}
	.st98{fill:#2A3C48;}
	.st99{fill:#182C37;}
	.st100{fill:#306886;}
	.st101{fill:#636368;}
	.st102{fill:#6C6C72;}
	.st103{fill:#20353F;}
	.st104{fill:url(#SVGID_1_);}
	.st105{fill:url(#SVGID_2_);}
	.st106{fill:#E44D26;}
	.st107{fill:#F16529;}
	.st108{fill:#EBEBEB;}
	.st109{fill:none;stroke:#FFFFFF;stroke-width:0.25;stroke-miterlimit:10;}
</style>
<polygon class="st0" points="7.06,38.09 9.21,40.33 19.38,35.81 19.38,35.24 17.45,33.18 14.25,33.53 "/>
<polygon class="st1" points="2.81,34.69 10.06,30.78 14.25,33.53 7.06,38.09 "/>
<polygon class="st2" points="9.79,29.45 11.46,29.45 10.06,30.78 2.81,34.69 1.33,34.42 1.33,34.05 "/>
<polygon class="st3" points="2.58,41.01 2.75,40.62 4.51,39.71 4.74,39.87 "/>
<polygon class="st4" points="2.58,41.01 4.74,39.87 5.05,40.33 3.04,41.31 "/>
<polygon class="st5" points="3.04,41.31 5.05,40.33 5.25,40.9 4.31,41.43 3.21,41.43 "/>
<polygon class="st6" points="4.74,39.87 5.45,39.51 5.25,39.32 4.51,39.71 "/>
<polygon class="st7" points="5.05,40.33 5.81,39.96 5.45,39.51 4.74,39.87 "/>
<polygon class="st8" points="5.25,40.9 5.05,40.33 5.81,39.96 5.9,40.53 "/>
<polygon class="st9" points="5.45,39.51 6.01,39.22 5.81,39.03 5.25,39.32 "/>
<polygon class="st10" points="5.45,39.51 6.01,39.22 6.33,39.71 5.81,39.96 "/>
<polygon class="st11" points="6.33,39.71 6.44,40.22 5.9,40.53 5.81,39.96 "/>
<polygon class="st12" points="6.01,39.22 7.53,38.32 7.23,37.98 7.06,38.09 7.01,38.41 5.81,39.03 "/>
<polygon class="st13" points="6.01,39.22 7.53,38.32 8,38.9 6.33,39.71 "/>
<polygon class="st14" points="6.33,39.71 8,38.9 8.41,39.32 7.74,39.92 7.06,39.87 6.44,40.22 "/>
<polygon class="st15" points="9.27,39.93 7.34,37.91 3.17,34.51 1.33,34.05 1.33,34.42 2.93,34.79 7.06,38.09 9.21,40.33 
	19.38,35.81 19.38,35.24 "/>
<polygon class="st16" points="10.06,30.78 16.23,27.5 11.83,28.34 9.79,29.45 11.46,29.45 "/>
<path class="st17" d="M19.38,35.24c0.06-0.03,2.07-1.06,2.07-1.06l-0.1-4.5l-7.1,3.84l3.2-0.34L19.38,35.24z"/>
<polygon class="st18" points="19.38,35.24 19.38,35.81 21.19,35 21.45,34.19 "/>
<polygon class="st19" points="14.25,33.53 21.35,29.69 17.01,27.29 16.23,27.5 10.06,30.78 "/>
<polygon class="st20" points="21.19,35 21.45,34.19 21.97,33.96 21.64,34.8 "/>
<polygon class="st21" points="21.45,34.19 21.97,33.96 21.97,29.44 21.35,29.69 "/>
<polygon class="st22" points="21.35,29.69 21.97,29.44 17.6,27.02 17.01,27.29 "/>
<polygon class="st23" points="17.6,27.02 17.01,27.29 11.83,28.34 12,28.25 "/>
<polygon class="st24" points="21.64,34.8 23.87,33.81 23.92,33.09 21.97,33.96 "/>
<polygon class="st25" points="23.87,33.81 24.94,33.34 25.21,32.47 23.92,33.09 "/>
<polygon class="st26" points="24.94,33.34 33.32,29.61 33.32,28.94 25.21,32.47 "/>
<polygon class="st27" points="33.32,29.61 33.32,28.94 34.03,28.63 34.03,29.3 "/>
<polygon class="st28" points="34.03,29.3 34.03,28.63 41.32,25.61 38.46,22.3 38.55,21.93 39.53,21.93 39.54,22.57 44.05,26.56 
	43.26,26.9 41.44,26.03 "/>
<polygon class="st29" points="23.92,33.09 23.92,31.7 28.05,27.5 33.02,27.63 34.03,28.63 33.32,28.94 32.67,28.36 28.58,28.34 
	25.19,31.71 25.21,32.47 "/>
<polygon class="st30" points="25.21,32.47 25.19,31.71 28.58,28.34 32.67,28.36 33.32,28.94 "/>
<polygon class="st30" points="21.97,33.96 23.92,33.09 23.92,31.7 28.05,27.5 33.02,27.63 34.03,28.63 41.32,25.61 38.46,22.3 
	31.64,24.67 30.75,23.97 26.77,22.13 26.18,22.3 26.71,22.3 30.77,24.36 31.71,25.27 35.52,23.83 31.77,26.27 32.29,26.47 
	32.71,27.12 26.5,26.76 21.97,29.44 "/>
<polygon class="st31" points="35.52,23.83 31.77,26.27 27.72,26.16 30.77,24.36 31.71,25.27 "/>
<polygon class="st32" points="27.72,26.16 23.68,23.88 26.18,22.3 26.71,22.3 30.77,24.36 "/>
<polygon class="st33" points="32.71,27.12 32.29,26.47 31.77,26.27 27.72,26.16 26.5,26.76 "/>
<polygon class="st34" points="22.46,24.41 26.5,26.76 27.72,26.16 23.68,23.88 "/>
<polygon class="st35" points="23.68,23.88 23.99,22.77 26.79,21.5 25.72,22.37 26.18,22.3 "/>
<polygon class="st36" points="17.6,27.02 21.97,29.44 26.5,26.76 22.46,24.41 "/>
<polygon class="st37" points="12.2,28.27 17.6,27.02 22.46,24.41 23.62,22.77 23.08,22.77 21.9,24.41 15.52,26.92 13.88,27.22 "/>
<polygon class="st38" points="13.88,27.22 15.52,26.92 21.9,24.41 23.08,22.77 22.07,22.77 21.66,22.99 22.31,23.03 21.35,24.23 
	15.61,26.76 14.34,26.97 "/>
<polygon class="st39" points="14.34,26.97 15.61,26.76 21.35,24.23 22.31,23.03 21.66,22.99 "/>
<polygon class="st40" points="11.87,22.51 13.53,22.51 19.68,20.52 19.82,21.05 13.43,23.15 11.87,23.1 "/>
<polygon class="st41" points="19.82,21.05 19.68,20.52 25.81,18.48 26.24,19.02 30.21,19.02 30.77,18.42 31.33,18.95 30.4,19.56 
	30.03,19.37 28.56,19.5 27.26,19.94 25.43,19.21 "/>
<polygon class="st42" points="11.87,22.51 13.53,22.51 19.68,20.52 14.1,21.15 "/>
<polygon class="st43" points="14.1,21.15 19.68,20.52 25.81,18.48 25.81,18.17 25.19,18.42 22.05,18.87 18.77,20.23 15.12,20.54 "/>
<polygon class="st44" points="33.68,34.51 33.82,33.92 35.46,35.54 35.28,36.11 "/>
<polygon class="st45" points="35.28,36.11 41.32,36.09 41.62,35.59 35.46,35.54 "/>
<polygon class="st46" points="33.82,33.92 39.04,30.04 41.62,35.59 35.46,35.54 "/>
<polygon class="st47" points="41.32,36.09 41.88,36.09 42.45,35.59 41.62,35.59 "/>
<polygon class="st48" points="41.62,35.59 42.45,35.59 39.52,29.68 39.04,30.04 "/>
<polygon class="st49" points="41.88,36.09 45.42,36.08 45.79,35.54 42.45,35.59 "/>
<polygon class="st50" points="45.42,36.08 45.79,36.07 46.28,35.54 45.79,35.54 "/>
<polygon class="st51" points="45.79,36.07 47.01,36.07 47.39,35.7 47.39,35.16 47,35.54 46.28,35.54 "/>
<polygon class="st52" points="47.39,35.16 50.64,31.96 50.68,32.43 47.39,35.7 "/>
<polygon class="st53" points="47.39,35.16 46.38,34.03 49.54,30.94 50.64,31.96 "/>
<polygon class="st54" points="47.39,35.16 47,35.54 46.28,35.54 44.96,33.29 48.47,29.94 49.54,30.94 46.38,34.03 "/>
<polygon class="st55" points="45.79,35.54 46.28,35.54 44.96,33.29 48.47,29.94 47.95,29.46 44.2,33.09 "/>
<polygon class="st56" points="50.64,31.96 52.28,30.29 47.71,26.15 46.03,27.66 "/>
<polygon class="st57" points="50.64,31.96 50.68,32.43 52.56,30.57 52.55,30.14 53.67,29.06 53.6,28.9 52.28,30.03 52.28,30.29 "/>
<polygon class="st58" points="50.82,28.96 52.28,27.67 53.4,28.48 53.6,28.9 52.28,30.03 52.28,30.29 "/>
<polygon class="st59" points="49.82,28.06 51.38,26.71 52.95,27.5 52.75,27.06 51.1,26.15 49.39,27.67 "/>
<polygon class="st60" points="50.82,28.96 52.28,27.67 53.4,28.48 52.95,27.5 51.38,26.71 49.82,28.06 "/>
<polygon class="st61" points="42.45,35.59 45.79,35.54 44.2,33.09 47.95,29.46 46.03,27.66 47.71,26.15 46.2,25 44.05,26.56 
	43.26,26.9 39.52,29.68 "/>
<polygon class="st36" points="22.07,22.77 23.99,22.77 26.79,21.5 25.72,22.37 26.18,22.3 26.77,22.13 26.42,22.08 28.85,20.6 
	28.85,20.26 27.34,20.52 24.63,21.9 23.79,21.83 "/>
<polygon class="st62" points="23.79,21.83 24.63,21.9 27.34,20.52 28.85,20.26 28.85,20.6 30.4,19.56 30.03,19.37 28.56,19.5 
	27.26,19.94 "/>
<polygon class="st63" points="22.46,24.41 23.62,22.77 23.99,22.77 23.68,23.88 "/>
<polygon class="st64" points="28.32,20.92 26.42,22.08 26.77,22.13 30.75,23.97 31.64,24.67 38.46,22.3 38.55,21.93 41.32,20.36 
	41.88,19.92 42.98,19.04 42.6,18.61 42.45,19.06 38.26,21.77 37.38,22.13 31.55,24.09 30.95,23.73 27.09,21.93 "/>
<polygon class="st17" points="49.63,22.53 50.08,22.46 51.09,21.45 50.95,20.03 49.57,21.2 "/>
<polygon class="st65" points="46.1,18.49 46.02,18.42 45.46,18.24 46.28,17.74 47.67,17.7 "/>
<polygon class="st17" points="46.2,25 47.65,23.89 47.64,22.4 46.2,23.44 "/>
<polygon class="st66" points="46.2,23.44 47.64,22.4 44.31,19.74 42.66,20.59 "/>
<polygon class="st67" points="44.31,19.74 42.66,19.74 41.42,20.51 42.66,20.59 "/>
<polygon class="st68" points="41.42,20.51 42.66,19.74 44.31,19.74 47.64,22.4 47.65,23.89 46.2,25 47.71,26.15 47.71,25.45 
	47.11,25 48.27,24.11 48.23,22.22 44.53,19.27 42.69,19.27 41.21,20.42 "/>
<polygon class="st69" points="42.69,19.27 44.53,19.27 46.02,18.42 45.46,18.24 44.4,18.24 42.98,19.04 "/>
<polygon class="st70" points="44.53,19.27 46.02,18.42 49.57,21.2 48.23,22.22 "/>
<polygon class="st71" points="49.57,21.2 50.95,20.03 47.67,17.7 46.1,18.49 "/>
<polygon class="st72" points="47.71,25.45 49.19,24.42 49.19,25 47.71,26.15 "/>
<polygon class="st73" points="47.71,25.45 49.19,24.42 48.7,24.01 47.11,25 "/>
<polygon class="st73" points="48.27,24.11 49.66,23.09 49.57,21.2 48.23,22.22 "/>
<polygon class="st74" points="49.39,27.67 51.1,26.15 52.75,27.06 51.05,23.38 50.08,22.46 49.63,22.53 49.66,23.09 48.7,24.01 
	49.19,24.42 49.19,25 47.71,26.15 "/>
<polygon class="st75" points="48.27,24.11 49.66,23.09 48.7,24.01 47.11,25 "/>
<polygon class="st76" points="45.77,25.28 46.2,25 46.2,23.44 42.66,20.59 41.42,20.51 41.21,20.42 40.75,20.69 40.97,20.94 
	42.34,20.91 45.71,23.7 "/>
<polygon class="st77" points="39.53,21.93 40.97,20.94 40.75,20.69 38.55,21.93 "/>
<path class="st78" d="M30.77,18.42c0.09-0.01,2.15-0.93,2.15-0.93s-0.24-1.79-0.29-1.78c-0.05,0.01-1.87,0.79-1.87,0.79V18.42z"/>
<polygon class="st79" points="30.77,16.5 32.64,15.71 31.65,14.91 29.54,15.55 "/>
<polygon class="st80" points="29.54,15.55 26.79,15.52 28.17,15.07 31.65,14.91 "/>
<polygon class="st81" points="30.45,18.77 30.77,18.42 30.77,16.5 29.54,15.55 26.79,15.52 26.12,15.72 25.99,15.96 29.41,15.9 
	30.4,16.73 "/>
<polygon class="st82" points="31.33,18.95 33.11,17.6 32.92,17.49 30.77,18.42 "/>
<polygon class="st83" points="28.36,14.72 32.17,14.66 33.11,15.62 33.24,17.41 32.92,17.49 32.64,15.71 31.65,14.91 28.17,15.07 
	"/>
<polygon class="st4" points="33.11,15.62 34.93,15.05 33.48,13.99 32.17,14.66 "/>
<polygon class="st84" points="33.24,17.41 35.11,16.5 34.93,15.05 33.11,15.62 "/>
<polygon class="st85" points="28.36,14.72 32.17,14.66 33.48,13.99 30.84,13.89 "/>
<polygon class="st86" points="34.95,15.23 37.12,14.35 37.44,15.86 35.11,16.5 "/>
<polygon class="st87" points="34.95,15.23 37.12,14.35 36.2,13.57 33.72,14.16 34.93,15.05 "/>
<polygon class="st88" points="33.72,14.16 33.48,13.99 31.75,13.93 33.68,13.57 36.2,13.57 "/>
<polygon class="st89" points="15.19,20.5 18.77,20.23 22.05,18.87 23.48,18.66 25.19,17.84 24.16,17.45 23.54,17.61 24.3,17.92 
	23.23,18.22 22.89,18.49 21.35,18.83 18.6,19.93 15.61,20.24 "/>
<polygon class="st90" points="15.61,20.24 18.6,19.93 21.35,18.83 22.89,18.49 23.23,18.22 24.3,17.92 23.54,17.61 21.12,18.2 
	20.85,18.61 16.04,19.99 "/>
<polygon class="st91" points="23.48,18.66 25.19,18.42 25.81,18.17 25.78,17.41 25.66,16.55 25.59,17.24 24.26,17.49 25.19,17.84 
	"/>
<polygon class="st46" points="27.09,21.93 31.12,23.83 31.55,24.09 31.75,23.44 27.84,21.81 "/>
<polygon class="st92" points="27.84,21.81 33.87,17.41 35.58,17.71 36.73,18.9 31.75,23.44 "/>
<polygon class="st93" points="31.94,23.59 37.67,21.64 36.93,19.1 "/>
<polygon class="st94" points="38.08,21.31 40.03,20.17 39.24,17.87 37.3,18.76 "/>
<polygon class="st95" points="39.34,17.63 40.75,17.19 37.83,16.23 36.36,16.4 38.11,16.7 "/>
<polygon class="st96" points="39.44,17.82 40.97,17.43 42.3,18.9 40.29,20.03 "/>
<polygon class="st97" points="27.09,21.93 28.85,20.56 33.11,17.6 33.78,17.15 35.11,16.5 37.44,15.86 37.52,15.86 38.06,15.86 
	41.09,16.85 42.6,18.61 42.45,19.06 40.75,17.19 37.83,16.23 36.36,16.4 38.11,16.7 39.34,17.63 38.88,17.81 37.77,16.83 
	35.7,16.66 34.49,17.15 35.97,17.41 37.17,18.51 36.73,18.9 35.58,17.71 33.87,17.41 27.84,21.81 "/>
<path class="st98" d="M31.75,23.44c0.07-0.05,4.98-4.55,4.98-4.55l0.45-0.39l1.71-0.7l0.46-0.18l1.41-0.44c0,0,0.23,0.25,0.22,0.24
	c-0.01-0.02-1.53,0.39-1.53,0.39l0.85,2.21l2.02-1.13l0.15,0.16l-4.28,2.75l-0.09-0.5l1.95-1.14l-0.79-2.3l-1.94,0.89l-5.25,4.81
	l5.61-1.93l0.11,0.33l-6.22,2.12L31.75,23.44z"/>
<polygon class="st99" points="37.77,21.97 38.17,21.81 38.08,21.31 37.3,18.76 36.93,19.1 "/>
<polygon class="st100" points="42.98,19.04 44.4,18.24 43.03,17.42 41.09,16.85 "/>
<polygon class="st101" points="37.17,18.51 38.88,17.81 37.77,16.83 35.97,17.41 "/>
<polygon class="st102" points="37.77,16.83 35.7,16.66 34.49,17.15 35.97,17.41 "/>
<path class="st103" d="M30.4,16.73l-1-0.83l-3.31,0.06l-0.34,0.65v0.58l0.06,1.29l0.43,0.54h3.97l0.23-0.25L30.4,16.73z M30.11,18.4
	l-0.16,0.21h-3.53l-0.29-0.25v-1.7l0.22-0.37l2.96-0.07l0.8,0.72V18.4z"/>
<linearGradient id="SVGID_1_" gradientUnits="userSpaceOnUse" x1="28.1178" y1="18.6103" x2="28.1178" y2="16.2275">
	<stop  offset="0.1414" style="stop-color:#192B36"/>
	<stop  offset="1" style="stop-color:#000000"/>
</linearGradient>
<polygon class="st104" points="30.11,18.4 29.95,18.61 26.42,18.61 26.13,18.36 26.13,16.66 26.35,16.3 29.3,16.23 30.11,16.95 "/>
<polygon class="st103" points="39.54,22.57 39.53,21.93 40.97,20.94 42.34,20.91 45.71,23.7 45.77,25.28 44.05,26.56 "/>
<linearGradient id="SVGID_2_" gradientUnits="userSpaceOnUse" x1="41.9444" y1="24.3691" x2="43.8346" y2="22.4789">
	<stop  offset="0.1414" style="stop-color:#192B36"/>
	<stop  offset="1" style="stop-color:#000000"/>
</linearGradient>
<polygon class="st105" points="40.07,22.49 40.03,21.97 41.09,21.31 42.24,21.31 45.3,23.95 45.43,25.2 44.16,26.19 "/>
<path d="M16.86,27.84l0.25,0.13l-0.25,0.13l0.23,0.12l0.25-0.13l0.25,0.13l-0.75,0.4l-0.26-0.13l0.25-0.13l-0.23-0.12l-0.25,0.13
	l-0.25-0.13 M17.69,28.51l-0.23-0.11l0.25-0.13l0.71,0.36l-0.25,0.13l-0.23-0.12l-0.5,0.27l-0.26-0.13 M18.53,28.68l0.27,0.14
	l-0.09,0.23l0.43-0.06l0.28,0.14l-0.75,0.41l-0.26-0.14l0.37-0.2l-0.45,0.05l0.09-0.24l-0.37,0.2l-0.26-0.13 M19.55,29.2l0.27,0.13
	l-0.5,0.28l0.38,0.19l-0.25,0.14l-0.65-0.33"/>
<path class="st106" d="M11.39,30.65l3.99-2.43l4.12,2.12l-4.7,2.23l-2.25-0.7"/>
<path class="st107" d="M12.95,31.65l4.11-2.22l1.71,0.89l-4.01,1.89"/>
<path class="st108" d="M15.27,29.04l1.28,0.67l-0.52,0.28l-0.73-0.39l-0.49,0.31l0.68,0.36l-0.53,0.29l-1.15-0.62 M13.57,30.1
	l0.51,0.28l-0.4,0.25l0.41,0.41l-0.58,0.31l-0.74-0.76"/>
<path class="st16" d="M17.86,30.4l-1.31-0.69l-0.52,0.28l1.26,0.67 M16.72,30.93l-1.22-0.65l-0.53,0.29l0.64,0.35l-0.76,0.35
	l-0.75-0.23l-0.57,0.31l1.39,0.43"/>
<path class="st106" d="M49.82,30.68l-2.24-1.98l1.22-1.22l2.09,2.15l-0.28,0.78"/>
<path class="st107" d="M50.42,30.21l-2.06-1.96l0.5-0.5l1.78,1.84"/>
<path class="st108" d="M48.23,28.87l0.39-0.39l0.26,0.25l-0.22,0.22l0.28,0.24l0.21-0.21l0.27,0.25l-0.35,0.35 M49.19,29.72
	l0.16-0.16l0.23,0.2l0.26-0.1l0.29,0.28l-0.49,0.18"/>
<path class="st16" d="M49,28.1l-0.39,0.39l0.26,0.25l0.38-0.38 M49.5,28.62l-0.37,0.36l0.27,0.25l0.2-0.19l0.34,0.35l-0.1,0.26
	l0.29,0.27l0.17-0.48"/>
<polygon id="Outline" class="st109" points="9.21,40.33 41.38,26.03 43.26,26.9 33.82,33.92 33.68,34.51 35.28,36.11 47.01,36.07 
	52.56,30.57 52.56,30.16 53.67,29.06 51.05,23.38 50.08,22.46 51.09,21.45 50.95,20.03 47.67,17.7 46.28,17.74 45.46,18.24 
	44.4,18.24 43.03,17.42 40.23,16.59 38.06,15.86 37.44,15.86 37.12,14.35 36.2,13.57 33.68,13.57 31.44,13.98 30.84,13.89 
	28.36,14.72 28.14,15.13 26.12,15.72 25.66,16.55 25.61,17.1 21.12,18.2 20.85,18.61 16.04,19.99 11.87,22.51 11.87,23.1 
	13.43,23.15 25.43,19.21 27.26,19.94 1.33,34.05 1.33,34.42 2.93,34.79 7.06,38.09 7.01,38.41 2.75,40.62 2.58,41.01 3.21,41.43 
	4.31,41.43 7.06,39.87 7.74,39.92 8.29,39.46 "/>
</svg>
