<svg xmlns="http://www.w3.org/2000/svg" width="0" height="0">

	<defs>
		<filter id="hexgl-distort">
			<feTurbulence baseFrequency="0.03 0.075" result="noise" numOctaves="3" />
			<feDisplacementMap in="SourceGraphic" in2="noise" scale="20" xChannelSelector="R" yChannelSelector="R"/>
		</filter>
	</defs>

	<svg id="icon-arrow-left" viewBox="0 0 51 51">
		<style type="text/css">
			.st0{fill:#000;}
		</style>
		<polygon class="st0" points="41,21 2,4 12,21 2,39 "/>
	</svg>

	<svg id="icon-arrow-right" viewBox="0 0 51 51">
		<style type="text/css">
			.st0{fill:#000;}
		</style>
		<polygon class="st0" points="2,22 41,39 31,22 41,4 "/>
	</svg>

	<svg id="icon-arrow-up" viewBox="0 0 51 51">
		<style type="text/css">
			.st0{fill:#000;}
		</style>
		<polygon class="st0" points="21,2 4,41 21,31 39,41 "/>
	</svg>

	<svg id="logo-hexgl" viewBox="0 0 200 50">
		<style type="text/css">
			.st0{fill:url(#SVGID_1_);}
		</style>
		<linearGradient id="SVGID_1_" gradientUnits="userSpaceOnUse" x1="100" y1="0" x2="100" y2="70">
			<stop offset="0" style="stop-color:#f9884d"/>
			<stop offset="1" style="stop-color:#f44729"/>
		</linearGradient>
		<path class="st0" d="M11.4,47.4H0V0.9h11.4v17h14.7v-17h11.4v46.5H26.2v-19H11.4V47.4z"/>
		<path class="st0" d="M77.9,23.3c1,2.2,1.5,4.6,1.5,7.1v0.3c0,0.1,0,0.2,0,0.4l-0.1,0.6h-4.1v0.1H52.7c0.3,1.8,1.1,3.4,2.4,4.8
			c1.7,1.7,3.6,2.5,5.9,2.5c2.3,0,4.2-0.8,5.9-2.5l0.1-0.1l0.1-0.1l0.1-0.1l0.1-0.1l5.6,8.1c-1.6,1.3-3.3,2.3-4.9,3
			c-2.2,0.9-4.5,1.3-6.9,1.3c-3.3,0-6.3-0.8-9.1-2.3c-2.9-1.6-5.1-3.7-6.8-6.5c-1.7-2.7-2.6-5.8-2.6-9.2c0-2.6,0.5-4.9,1.5-7.1
			c1-2.2,2.3-4.1,4.1-5.7c1.7-1.7,3.7-2.9,5.9-3.8c2.2-0.9,4.6-1.3,7-1.3c2.4,0,4.7,0.4,6.9,1.3c2.2,0.9,4.2,2.1,5.9,3.7
			C75.6,19.1,76.9,21,77.9,23.3z M61,22c-1.5,0-2.8,0.4-4.1,1.1c-0.8,0.5-1.6,1.2-2.3,2h12.8c-0.7-0.9-1.5-1.6-2.3-2
			C63.8,22.3,62.4,22,61,22z"/>
		<path class="st0" d="M79.3,47.4L91.6,30L80.1,13.9l11.5-0.1l6.1,9.3l6.5-9.3l11.3,0l-12.1,16.2l12.8,17.2l-12.5,0.1l-6.4-9.7l-6.9,9.7L79.3,47.4
			z"/>
		<path class="st0" d="M157.2,14.8c-1.4-1.3-3.1-2.3-5-3.1c-1.9-0.7-3.8-1.1-5.8-1.1c-2,0-3.8,0.3-5.5,1c-1.7,0.7-3.2,1.7-4.4,2.9
			c-1.2,1.2-2.2,2.7-2.9,4.4c-0.7,1.6-1,3.5-1,5.5c0,2.8,0.7,5.3,2,7.3c1.3,2.1,3,3.7,5.3,4.8c2.2,1.1,4.7,1.7,7.4,1.7
			c1.1,0,2.3-0.1,3.6-0.4c1.3-0.3,2.3-0.7,2.9-1.3v-6.7h-4.6l-4.1-9.8h20.1v24c-0.9,0.5-2.2,1.2-4,1.8c-1.6,0.6-3.3,1.1-4.9,1.5
			c-1.5,0.4-3.2,0.7-5.2,1c-1.9,0.3-3.7,0.4-5.4,0.4c-4.4,0-8.5-1.1-12.3-3.2c-3.8-2.2-6.8-5.1-9-8.8c-2.2-3.7-3.3-7.8-3.3-12.2
			c0-4.4,1.1-8.5,3.3-12.3c2.2-3.7,5.2-6.6,9-8.8c3.8-2.2,7.9-3.2,12.3-3.2c2.2,0,4.4,0.3,6.6,0.8c2.2,0.5,4.3,1.3,6.3,2.3
			c2,1,3.8,2.2,5.2,3.5L157.2,14.8z"/>
		<path class="st0" d="M197,47.4h-26.7V0.9l11.4,0v35.9H200L197,47.4z"/>
	</svg>

	<svg id="ship-feisar" viewBox="0 0 260 139">
		<style type="text/css">
			.st0{fill:#2E4C5D;}
			.st1{fill:#6A899A;}
			.st2{fill:#7CA2B7;}
			.st3{fill:#3D5D6F;}
			.st4{fill:#254150;}
			.st5{fill:#1B313C;}
			.st6{fill:#3681AE;}
			.st7{fill:#368AB3;}
			.st8{fill:#1E6486;}
			.st9{fill:#6E7585;}
			.st10{fill:#D75718;}
			.st11{fill:#A23702;}
			.st12{fill:#203947;}
			.st13{fill:#243F4E;}
			.st14{fill:#253741;}
			.st15{fill:#1B323F;}
			.st16{fill:#FFFFFF;}
			.st17{fill:#317497;}
			.st18{fill:#9C9DA6;}
			.st19{fill:#EBEBF4;}
			.st20{fill:#525F69;}
			.st21{fill:#767276;}
			.st22{fill:#8C898E;}
			.st23{fill:#8E9BA9;}
			.st24{fill:#2E7295;}
			.st25{fill:#A7A7B0;}
			.st26{fill:#2C6D8F;}
			.st27{fill:#8A878E;}
			.st28{fill:#25546D;}
			.st29{fill:#DFE0EB;}
			.st30{fill:#3E95C3;}
			.st31{fill:#274555;}
			.st32{fill:#3D5B6C;}
			.st33{fill:#EF5813;}
			.st34{fill:#FF6B2E;}
			.st35{fill:#688EA3;}
			.st36{fill:#51ACDC;}
			.st37{fill:#75E0FE;}
			.st38{fill:#FBFFFF;}
			.st39{fill:#69E0FF;}
			.st40{fill:#162D3A;}
			.st41{fill:#3E7D9E;}
			.st42{fill:#739AB0;}
			.st43{fill:#60D0FF;}
			.st44{fill:#223C4A;}
			.st45{fill:#101F27;}
			.st46{fill:#284758;}
			.st47{fill:#65696F;}
			.st48{fill:#E3E3F0;}
			.st49{fill:#164157;}
			.st50{fill:#C34A16;}
			.st51{fill:#3E3E42;}
			.st52{fill:#4280A0;}
			.st53{fill:#3C93C2;}
			.st54{fill:#79797F;}
			.st55{fill:#EA6022;}
			.st56{fill:#254353;}
			.st57{fill:#1C343F;}
			.st58{fill:#3F92BC;}
			.st59{fill:#D45A25;}
			.st60{fill:#737379;}
			.st61{fill:#3E94C1;}
			.st62{fill:#3E91BD;}
			.st63{fill:#FF954C;}
			.st64{fill:#BABFCB;}
			.st65{fill:#52BDF2;}
			.st66{fill:#367FA8;}
			.st67{fill:#48A9DB;}
			.st68{fill:#14242E;}
			.st69{fill:#345568;}
			.st70{fill:#264354;}
			.st71{fill:#34779C;}
			.st72{fill:#1B313A;}
			.st73{fill:#233D4B;}
			.st74{fill:#3887B0;}
			.st75{fill:#172A33;}
			.st76{fill:#D5D5E0;}
			.st77{fill:#35799B;}
			.st78{fill:#22556F;}
			.st79{fill:#3687B0;}
			.st80{fill:#56AFDE;}
			.st81{fill:#B5B4BF;}
			.st82{fill:#3E8DB7;}
			.st83{fill:#1F323D;}
			.st84{fill:#192B36;}
			.st85{fill:#2A4351;}
			.st86{fill:#2C6786;}
			.st87{fill:#3C8EB8;}
			.st88{fill:#92CDEE;}
			.st89{fill:#D0AFA2;}
			.st90{fill:#67A8CA;}
			.st91{fill:#8A9CAB;}
			.st92{fill:#545458;}
			.st93{fill:#404043;}
			.st94{fill:#4A4B4F;}
			.st95{fill:#616166;}
			.st96{fill:#5F6065;}
			.st97{fill:#172933;}
			.st98{fill:#2A3C48;}
			.st99{fill:#182C37;}
			.st100{fill:#306886;}
			.st101{fill:#636368;}
			.st102{fill:#6C6C72;}
			.st103{fill:#20353F;}
			.st104{fill:url(#SVGID_1_);}
			.st105{fill:url(#SVGID_2_);}
			.st106{fill:#E44D26;}
			.st107{fill:#F16529;}
			.st108{fill:#EBEBEB;}
			.st109{fill:none;stroke:#FFFFFF;stroke-width:0.25;stroke-miterlimit:10;}
		</style>
		<polygon class="st0" points="28.5,122.1 39.1,133.2 89.7,110.8 89.7,107.9 80.1,97.7 64.2,99.5 "/>
		<polygon class="st1" points="7.4,105.2 43.4,85.8 64.2,99.5 28.5,122.1 "/>
		<polygon class="st2" points="42,79.2 50.3,79.2 43.4,85.8 7.4,105.2 0,103.9 0,102 "/>
		<polygon class="st3" points="6.2,136.6 7.1,134.7 15.8,130.2 16.9,130.9 "/>
		<polygon class="st4" points="6.2,136.6 16.9,130.9 18.5,133.2 8.5,138.1 "/>
		<polygon class="st5" points="8.5,138.1 18.5,133.2 19.5,136.1 14.8,138.7 9.3,138.7 "/>
		<polygon class="st6" points="16.9,130.9 20.5,129.2 19.5,128.2 15.8,130.2 "/>
		<polygon class="st7" points="18.5,133.2 22.3,131.4 20.5,129.2 16.9,130.9 "/>
		<polygon class="st8" points="19.5,136.1 18.5,133.2 22.3,131.4 22.7,134.2 "/>
		<polygon class="st9" points="20.5,129.2 23.2,127.7 22.3,126.8 19.5,128.2 "/>
		<polygon class="st10" points="20.5,129.2 23.2,127.7 24.8,130.2 22.3,131.4 "/>
		<polygon class="st11" points="24.8,130.2 25.4,132.7 22.7,134.2 22.3,131.4 "/>
		<polygon class="st12" points="23.2,127.7 30.8,123.2 29.3,121.6 28.5,122.1 28.2,123.7 22.3,126.8 "/>
		<polygon class="st13" points="23.2,127.7 30.8,123.2 33.1,126.1 24.8,130.2 "/>
		<polygon class="st14" points="24.8,130.2 33.1,126.1 35.2,128.2 31.8,131.2 28.5,130.9 25.4,132.7 "/>
		<polygon class="st15" points="39.4,131.2 29.9,121.2 9.1,104.3 0,102 0,103.9 7.9,105.7 28.5,122.1 39.1,133.2 89.7,110.8 
			89.7,107.9 "/>
		<polygon class="st16" points="43.4,85.8 74,69.5 52.2,73.7 42,79.2 50.3,79.2 "/>
		<path class="st17" d="M89.7,107.9c0.3-0.1,10.3-5.3,10.3-5.3l-0.5-22.4L64.2,99.4l15.9-1.7L89.7,107.9z"/>
		<polygon class="st18" points="89.7,107.9 89.7,110.8 98.7,106.8 99.9,102.7 "/>
		<polygon class="st19" points="64.2,99.5 99.4,80.4 77.9,68.5 74,69.5 43.4,85.8 "/>
		<polygon class="st20" points="98.7,106.8 99.9,102.7 102.5,101.6 100.9,105.8 "/>
		<polygon class="st21" points="99.9,102.7 102.5,101.6 102.5,79.1 99.4,80.4 "/>
		<polygon class="st22" points="99.4,80.4 102.5,79.1 80.8,67.1 77.9,68.5 "/>
		<polygon class="st23" points="80.8,67.1 77.9,68.5 52.2,73.7 53,73.2 "/>
		<polygon class="st24" points="100.9,105.8 112,100.8 112.2,97.3 102.5,101.6 "/>
		<polygon class="st25" points="112,100.8 117.3,98.5 118.6,94.2 112.2,97.3 "/>
		<polygon class="st26" points="117.3,98.5 158.9,80 158.9,76.7 118.6,94.2 "/>
		<polygon class="st27" points="158.9,80 158.9,76.7 162.4,75.1 162.4,78.4 "/>
		<polygon class="st28" points="162.4,78.4 162.4,75.1 198.7,60.1 184.4,43.7 184.9,41.8 189.8,41.8 189.8,45 212.2,64.8 208.3,66.5 
			199.2,62.2 "/>
		<polygon class="st29" points="112.2,97.3 112.2,90.4 132.7,69.5 157.4,70.1 162.4,75.1 158.9,76.7 155.7,73.8 135.4,73.7 
			118.5,90.4 118.6,94.2 "/>
		<polygon class="st30" points="118.6,94.2 118.5,90.4 135.4,73.7 155.7,73.8 158.9,76.7 "/>
		<polygon class="st30" points="102.5,101.6 112.2,97.3 112.2,90.4 132.7,69.5 157.4,70.1 162.4,75.1 198.7,60.1 184.4,43.7 
			150.6,55.4 146.1,52 126.4,42.8 123.4,43.7 126.1,43.7 146.2,53.9 150.9,58.4 169.8,51.3 151.2,63.4 153.8,64.4 155.9,67.6 
			125,65.8 102.5,79.1 "/>
		<polygon class="st31" points="169.8,51.3 151.2,63.4 131.1,62.8 146.2,53.9 150.9,58.4 "/>
		<polygon class="st32" points="131.1,62.8 111,51.5 123.4,43.7 126.1,43.7 146.2,53.9 "/>
		<polygon class="st33" points="155.9,67.6 153.8,64.4 151.2,63.4 131.1,62.8 125,65.8 "/>
		<polygon class="st34" points="105,54.2 125,65.8 131.1,62.8 111,51.5 "/>
		<polygon class="st35" points="111,51.5 112.6,46 126.5,39.7 121.2,44 123.4,43.7 "/>
		<polygon class="st36" points="80.8,67.1 102.5,79.1 125,65.8 105,54.2 "/>
		<polygon class="st37" points="54,73.3 80.8,67.1 105,54.2 110.7,46 108,46 102.2,54.2 70.5,66.6 62.3,68.1 "/>
		<polygon class="st38" points="62.3,68.1 70.5,66.6 102.2,54.2 108,46 103,46 101,47.1 104.2,47.3 99.4,53.3 70.9,65.8 64.6,66.9 "/>
		<polygon class="st39" points="64.6,66.9 70.9,65.8 99.4,53.3 104.2,47.3 101,47.1 "/>
		<polygon class="st40" points="52.4,44.7 60.6,44.7 91.2,34.8 91.8,37.5 60.1,47.9 52.4,47.6 "/>
		<polygon class="st41" points="91.8,37.5 91.2,34.8 121.6,24.7 123.7,27.4 143.5,27.4 146.2,24.4 149,27 144.4,30.1 142.6,29.1 
			135.3,29.8 128.8,31.9 119.7,28.3 "/>
		<polygon class="st42" points="52.4,44.7 60.6,44.7 91.2,34.8 63.4,38 "/>
		<polygon class="st43" points="63.4,38 91.2,34.8 121.6,24.7 121.6,23.2 118.5,24.4 102.9,26.6 86.6,33.4 68.5,34.9 "/>
		<polygon class="st44" points="160.7,104.3 161.4,101.4 169.5,109.4 168.6,112.3 "/>
		<polygon class="st45" points="168.6,112.3 198.7,112.2 200.1,109.7 169.5,109.4 "/>
		<polygon class="st46" points="161.4,101.4 187.3,82.1 200.1,109.7 169.5,109.4 "/>
		<polygon class="st47" points="198.7,112.2 201.4,112.2 204.3,109.7 200.1,109.7 "/>
		<polygon class="st48" points="200.1,109.7 204.3,109.7 189.7,80.3 187.3,82.1 "/>
		<polygon class="st49" points="201.4,112.2 219,112.1 220.9,109.4 204.3,109.7 "/>
		<polygon class="st50" points="219,112.1 220.9,112.1 223.3,109.4 220.9,109.4 "/>
		<polygon class="st51" points="220.9,112.1 226.9,112.1 228.8,110.2 228.8,107.6 226.9,109.4 223.3,109.4 "/>
		<polygon class="st52" points="228.8,107.6 244.9,91.7 245.1,94 228.8,110.2 "/>
		<polygon class="st53" points="228.8,107.6 223.8,101.9 239.5,86.6 244.9,91.7 "/>
		<polygon class="st54" points="228.8,107.6 226.9,109.4 223.3,109.4 216.7,98.3 234.2,81.6 239.5,86.6 223.8,101.9 "/>
		<polygon class="st55" points="220.9,109.4 223.3,109.4 216.7,98.3 234.2,81.6 231.6,79.2 213,97.3 "/>
		<polygon class="st56" points="244.9,91.7 253.1,83.4 230.4,62.8 222,70.3 "/>
		<polygon class="st57" points="244.9,91.7 245.1,94 254.5,84.8 254.4,82.6 260,77.2 259.7,76.5 253.1,82.1 253.1,83.4 "/>
		<polygon class="st58" points="245.8,76.8 253.1,70.3 258.7,74.4 259.7,76.5 253.1,82.1 253.1,83.4 "/>
		<polygon class="st59" points="240.9,72.3 248.6,65.6 256.4,69.5 255.4,67.3 247.2,62.8 238.7,70.3 "/>
		<polygon class="st60" points="245.8,76.8 253.1,70.3 258.7,74.4 256.4,69.5 248.6,65.6 240.9,72.3 "/>
		<polygon class="st61" points="204.3,109.7 220.9,109.4 213,97.3 231.6,79.2 222,70.3 230.4,62.8 222.9,57.1 212.2,64.8 208.3,66.5 
			189.7,80.3 "/>
		<polygon class="st36" points="103,46 112.6,46 126.5,39.7 121.2,44 123.4,43.7 126.4,42.8 124.6,42.6 136.7,35.2 136.7,33.5 
			129.2,34.8 115.7,41.7 111.6,41.3 "/>
		<polygon class="st62" points="111.6,41.3 115.7,41.7 129.2,34.8 136.7,33.5 136.7,35.2 144.4,30.1 142.6,29.1 135.3,29.8 
			128.8,31.9 "/>
		<polygon class="st63" points="105,54.2 110.7,46 112.6,46 111,51.5 "/>
		<polygon class="st64" points="134.1,36.8 124.6,42.6 126.4,42.8 146.1,52 150.6,55.4 184.4,43.7 184.9,41.8 198.7,34 201.4,31.8 
			206.9,27.5 205,25.3 204.3,27.6 183.5,41 179.1,42.8 150.1,52.6 147.1,50.8 128,41.8 "/>
		<polygon class="st17" points="239.9,44.8 242.2,44.5 247.2,39.4 246.5,32.4 239.6,38.2 "/>
		<polygon class="st65" points="222.4,24.7 222,24.4 219.2,23.5 223.3,21 230.2,20.8 "/>
		<polygon class="st17" points="222.9,57.1 230.1,51.6 230,44.2 222.9,49.3 "/>
		<polygon class="st66" points="222.9,49.3 230,44.2 213.5,31 205.3,35.2 "/>
		<polygon class="st67" points="213.5,31 205.3,31 199.1,34.8 205.3,35.2 "/>
		<polygon class="st68" points="199.1,34.8 205.3,31 213.5,31 230,44.2 230.1,51.6 222.9,57.1 230.4,62.8 230.4,59.3 227.4,57.1 
			233.2,52.7 233,43.3 214.6,28.6 205.5,28.6 198.1,34.3 "/>
		<polygon class="st69" points="205.5,28.6 214.6,28.6 222,24.4 219.2,23.5 214,23.5 206.9,27.5 "/>
		<polygon class="st70" points="214.6,28.6 222,24.4 239.6,38.2 233,43.3 "/>
		<polygon class="st71" points="239.6,38.2 246.5,32.4 230.2,20.8 222.4,24.7 "/>
		<polygon class="st72" points="230.4,59.3 237.7,54.2 237.7,57.1 230.4,62.8 "/>
		<polygon class="st73" points="230.4,59.3 237.7,54.2 235.3,52.2 227.4,57.1 "/>
		<polygon class="st73" points="233.2,52.7 240.1,47.6 239.6,38.2 233,43.3 "/>
		<polygon class="st74" points="238.7,70.3 247.2,62.8 255.4,67.3 247,49 242.2,44.5 239.9,44.8 240.1,47.6 235.3,52.2 237.7,54.2 
			237.7,57.1 230.4,62.8 "/>
		<polygon class="st75" points="233.2,52.7 240.1,47.6 235.3,52.2 227.4,57.1 "/>
		<polygon class="st76" points="220.8,58.5 222.9,57.1 222.9,49.3 205.3,35.2 199.1,34.8 198.1,34.3 195.8,35.7 196.9,36.9 
			203.7,36.8 220.5,50.6 "/>
		<polygon class="st77" points="189.8,41.8 196.9,36.9 195.8,35.7 184.9,41.8 "/>
		<path class="st78" d="M146.2,24.4c0.4,0,10.7-4.6,10.7-4.6s-1.2-8.9-1.4-8.8c-0.2,0-9.3,3.9-9.3,3.9L146.2,24.4L146.2,24.4z"/>
		<polygon class="st79" points="146.2,14.9 155.5,10.9 150.6,7 140.1,10.1 "/>
		<polygon class="st80" points="140.1,10.1 126.5,10 133.3,7.8 150.6,7 "/>
		<polygon class="st81" points="144.7,26.1 146.2,24.4 146.2,14.9 140.1,10.1 126.5,10 123.1,11 122.5,12.2 139.5,11.9 144.4,16 "/>
		<polygon class="st82" points="149,27 157.9,20.3 156.9,19.8 146.2,24.4 "/>
		<polygon class="st83" points="134.3,6 153.2,5.7 157.9,10.5 158.5,19.4 156.9,19.8 155.5,10.9 150.6,7 133.3,7.8 "/>
		<polygon class="st4" points="157.9,10.5 166.9,7.7 159.7,2.4 153.2,5.7 "/>
		<polygon class="st84" points="158.5,19.4 167.8,14.9 166.9,7.7 157.9,10.5 "/>
		<polygon class="st85" points="134.3,6 153.2,5.7 159.7,2.4 146.6,1.9 "/>
		<polygon class="st86" points="167,8.5 177.8,4.2 179.4,11.7 167.8,14.9 "/>
		<polygon class="st87" points="167,8.5 177.8,4.2 173.2,0.3 160.9,3.2 166.9,7.7 "/>
		<polygon class="st88" points="160.9,3.2 159.7,2.4 151.1,2.1 160.7,0.3 173.2,0.3 "/>
		<polygon class="st89" points="68.8,34.7 86.6,33.4 102.9,26.6 110,25.6 118.5,21.5 113.4,19.6 110.3,20.4 114.1,21.9 108.8,23.4 
			107.1,24.7 99.4,26.4 85.8,31.9 70.9,33.4 "/>
		<polygon class="st90" points="70.9,33.4 85.8,31.9 99.4,26.4 107.1,24.7 108.8,23.4 114.1,21.9 110.3,20.4 98.3,23.3 97,25.3 
			73.1,32.2 "/>
		<polygon class="st91" points="110,25.6 118.5,24.4 121.6,23.2 121.5,19.4 120.9,15.1 120.5,18.5 113.9,19.8 118.5,21.5 "/>
		<polygon class="st46" points="128,41.8 148,51.3 150.1,52.6 151.1,49.3 131.7,41.2 "/>
		<polygon class="st92" points="131.7,41.2 161.6,19.4 170.1,20.9 175.9,26.8 151.1,49.3 "/>
		<polygon class="st93" points="152.1,50.1 180.5,40.4 176.8,27.8 "/>
		<polygon class="st94" points="182.6,38.8 192.2,33.1 188.3,21.7 178.7,26.1 "/>
		<polygon class="st95" points="188.8,20.5 195.8,18.3 181.3,13.5 174,14.4 182.7,15.9 "/>
		<polygon class="st96" points="189.3,21.4 196.9,19.5 203.5,26.8 193.5,32.4 "/>
		<polygon class="st97" points="128,41.8 136.7,35 157.9,20.3 161.2,18.1 167.8,14.9 179.4,11.7 179.8,11.7 182.5,11.7 197.5,16.6 
			205,25.3 204.3,27.6 195.8,18.3 181.3,13.5 174,14.4 182.7,15.9 188.8,20.5 186.5,21.4 181,16.5 170.7,15.7 164.7,18.1 172.1,19.4 
			178,24.8 175.9,26.8 170.1,20.9 161.6,19.4 131.7,41.2 "/>
		<path class="st98" d="M151.1,49.3c0.3-0.2,24.7-22.6,24.7-22.6l2.2-1.9l8.5-3.5l2.3-0.9l7-2.2c0,0,1.1,1.2,1.1,1.2
			c0-0.1-7.6,1.9-7.6,1.9l4.2,11l10-5.6l0.7,0.8l-21.3,13.7l-0.4-2.5l9.7-5.7l-3.9-11.4l-9.6,4.4l-26.1,23.9l27.9-9.6l0.5,1.6
			l-30.9,10.5L151.1,49.3z"/>
		<polygon class="st99" points="181,42 183,41.2 182.6,38.8 178.7,26.1 176.8,27.8 "/>
		<polygon class="st100" points="206.9,27.5 214,23.5 207.1,19.4 197.5,16.6 "/>
		<polygon class="st101" points="178,24.8 186.5,21.4 181,16.5 172.1,19.4 "/>
		<polygon class="st102" points="181,16.5 170.7,15.7 164.7,18.1 172.1,19.4 "/>
		<path class="st103" d="M144.4,16l-5-4.1L123,12.2l-1.7,3.2v2.9l0.3,6.4l2.1,2.7h19.7l1.1-1.2L144.4,16z M143,24.3l-0.8,1h-17.5
			l-1.4-1.2v-8.4l1.1-1.8l14.7-0.3l4,3.6C143,17,143,24.3,143,24.3z"/>
		<linearGradient id="SVGID_1_" gradientUnits="userSpaceOnUse" x1="133.0799" y1="114.6613" x2="133.0799" y2="126.4979" gradientTransform="matrix(1 0 0 -1 0 140)">
			<stop  offset="0.1414" style="stop-color:#192B36"/>
			<stop  offset="1" style="stop-color:#000000"/>
		</linearGradient>
		<polygon class="st104" points="143,24.3 142.2,25.3 124.6,25.3 123.2,24.1 123.2,15.7 124.3,13.9 138.9,13.5 143,17.1 "/>
		<polygon class="st103" points="189.8,45 189.8,41.8 196.9,36.9 203.7,36.8 220.5,50.6 220.8,58.5 212.2,64.8 "/>
		<linearGradient id="SVGID_2_" gradientUnits="userSpaceOnUse" x1="201.7566" y1="86.0491" x2="211.1462" y2="95.4387" gradientTransform="matrix(1 0 0 -1 0 140)">
			<stop  offset="0.1414" style="stop-color:#192B36"/>
			<stop  offset="1" style="stop-color:#000000"/>
		</linearGradient>
		<polygon class="st105" points="192.4,44.6 192.2,42 197.5,38.8 203.2,38.8 218.4,51.9 219.1,58.1 212.8,63 "/>
		<path d="M77.1,71.2l1.2,0.6l-1.2,0.6l1.1,0.6l1.2-0.6l1.2,0.6l-3.7,2l-1.3-0.6l1.2-0.6l-1.1-0.6l-1.2,0.6l-1.2-0.6 M81.3,74.5
			L80.1,74l1.2-0.6l3.5,1.8l-1.2,0.6l-1.1-0.6L80,76.5l-1.3-0.6 M85.4,75.4l1.3,0.7l-0.4,1.1l2.1-0.3l1.4,0.7l-3.7,2l-1.3-0.7l1.8-1
			l-2.2,0.2l0.4-1.2l-1.8,1l-1.3-0.6 M90.5,77.9l1.3,0.6L89.4,80l1.9,0.9L90,81.6L86.8,80"/>
		<path class="st106" d="M50,85.1l19.8-12.1l20.5,10.5L66.9,94.7l-11.2-3.5"/>
		<path class="st107" d="M57.7,90.1l20.4-11l8.5,4.4l-19.9,9.4"/>
		<path class="st108" d="M69.2,77.1l6.4,3.3L73,81.9l-3.6-1.9L67,81.5l3.4,1.8l-2.6,1.4L62,81.6 M60.8,82.4l2.5,1.4l-2,1.2l2,2
			l-2.9,1.5l-3.7-3.8"/>
		<path class="st16" d="M82.1,83.9l-6.5-3.4L73,81.9l6.3,3.3 M76.5,86.5l-6.1-3.2l-2.6,1.4l3.2,1.7l-3.8,1.7l-3.7-1.1l-2.8,1.5
			l6.9,2.1"/>
		<path class="st106" d="M240.9,85.3l-11.1-9.8l6.1-6.1l10.4,10.7l-1.4,3.9"/>
		<path class="st107" d="M243.9,83l-10.2-9.7l2.5-2.5l8.8,9.1"/>
		<path class="st108" d="M233,76.3l1.9-1.9l1.3,1.2l-1.1,1.1l1.4,1.2l1-1l1.3,1.2l-1.7,1.7 M237.7,80.5l0.8-0.8l1.1,1l1.3-0.5l1.4,1.4
			l-2.4,0.9"/>
		<path class="st16" d="M236.8,72.5l-1.9,1.9l1.3,1.2l1.9-1.9 M239.3,75.1l-1.8,1.8l1.3,1.2l1-0.9l1.7,1.7l-0.5,1.3l1.4,1.3l0.8-2.4"
			/>
		<polygon id="Outline" class="st109" points="39.1,133.2 198.9,62.2 208.3,66.5 161.4,101.4 160.7,104.3 168.6,112.3 226.9,112.1 
			254.5,84.8 254.5,82.7 260,77.2 247,49 242.2,44.5 247.2,39.4 246.5,32.4 230.2,20.8 223.3,21 219.2,23.5 214,23.5 207.1,19.4 
			193.2,15.3 182.5,11.7 179.4,11.7 177.8,4.2 173.2,0.3 160.7,0.3 149.6,2.3 146.6,1.9 134.3,6 133.2,8.1 123.1,11 120.9,15.1 
			120.6,17.8 98.3,23.3 97,25.3 73.1,32.2 52.4,44.7 52.4,47.6 60.1,47.9 119.7,28.3 128.8,31.9 0,102 0,103.9 7.9,105.7 28.5,122.1 
			28.2,123.7 7.1,134.7 6.2,136.6 9.3,138.7 14.8,138.7 28.5,130.9 31.8,131.2 34.6,128.9 "/>
	</svg>

</svg>